<?xml version="1.0" encoding="UTF-8"?>
<svg xmlns="http://www.w3.org/2000/svg" xmlns:xlink="http://www.w3.org/1999/xlink" width="24px" height="24px" viewBox="0 0 24 24" version="1.1">
<g id="surface1">
<path style=" stroke:none;fill-rule:nonzero;fill:rgb(99.607843%,88.235294%,52.941176%);fill-opacity:1;" d="M 0.648438 12 L 7.238281 15.804688 L 7.238281 8.195312 Z M 0.648438 12 "/>
<path style=" stroke:none;fill-rule:nonzero;fill:rgb(100%,77.647059%,10.588235%);fill-opacity:1;" d="M 12.804688 9.554688 L 7.886719 9.554688 L 7.886719 8.195312 C 7.886719 7.960938 7.761719 7.75 7.5625 7.632812 C 7.363281 7.519531 7.117188 7.519531 6.914062 7.632812 L 0.324219 11.4375 C 0.125 11.554688 0 11.769531 0 12 C 0 12.230469 0.125 12.445312 0.324219 12.558594 L 6.914062 16.367188 C 7.015625 16.425781 7.128906 16.453125 7.238281 16.453125 C 7.351562 16.453125 7.460938 16.425781 7.5625 16.367188 C 7.761719 16.25 7.886719 16.035156 7.886719 15.804688 L 7.886719 14.445312 L 12.804688 14.445312 C 13.164062 14.445312 13.453125 14.152344 13.453125 13.796875 L 13.453125 10.203125 C 13.453125 9.847656 13.164062 9.554688 12.804688 9.554688 Z M 6.59375 14.683594 L 1.941406 12 L 6.59375 9.316406 Z M 12.160156 13.148438 L 7.886719 13.148438 L 7.886719 10.851562 L 12.160156 10.851562 Z M 12.160156 13.148438 "/>
<path style=" stroke:none;fill-rule:nonzero;fill:rgb(99.607843%,88.235294%,52.941176%);fill-opacity:1;" d="M 15.164062 5.316406 L 15.164062 18.683594 C 17.949219 17.738281 19.953125 15.105469 19.953125 12 C 19.953125 8.894531 17.949219 6.261719 15.164062 5.316406 Z M 15.164062 5.316406 "/>
<path style=" stroke:none;fill-rule:nonzero;fill:rgb(100%,77.647059%,10.588235%);fill-opacity:1;" d="M 15.164062 19.332031 C 15.03125 19.332031 14.898438 19.289062 14.789062 19.210938 C 14.617188 19.089844 14.515625 18.890625 14.515625 18.683594 L 14.515625 5.316406 C 14.515625 5.109375 14.617188 4.910156 14.789062 4.789062 C 14.957031 4.667969 15.175781 4.636719 15.371094 4.703125 C 18.5 5.761719 20.601562 8.695312 20.601562 12 C 20.601562 15.304688 18.5 18.238281 15.371094 19.296875 C 15.304688 19.320312 15.234375 19.332031 15.164062 19.332031 Z M 15.8125 6.289062 L 15.8125 17.710938 C 17.933594 16.628906 19.308594 14.4375 19.308594 12 C 19.308594 9.5625 17.933594 7.371094 15.8125 6.289062 Z M 15.8125 6.289062 "/>
<path style=" stroke:none;fill-rule:nonzero;fill:rgb(100%,77.647059%,10.588235%);fill-opacity:1;" d="M 12.898438 23.101562 C 9.195312 23.101562 5.75 21.265625 3.679688 18.1875 C 3.480469 17.890625 3.5625 17.488281 3.855469 17.289062 C 4.152344 17.089844 4.554688 17.167969 4.753906 17.464844 C 6.582031 20.183594 9.628906 21.804688 12.898438 21.804688 C 18.304688 21.804688 22.707031 17.40625 22.707031 12 C 22.707031 6.59375 18.304688 2.195312 12.898438 2.195312 C 9.628906 2.195312 6.582031 3.816406 4.753906 6.535156 C 4.554688 6.832031 4.152344 6.910156 3.855469 6.710938 C 3.5625 6.511719 3.480469 6.109375 3.679688 5.8125 C 5.75 2.734375 9.195312 0.898438 12.898438 0.898438 C 19.019531 0.898438 24 5.878906 24 12 C 24 18.121094 19.019531 23.101562 12.898438 23.101562 Z M 12.898438 23.101562 "/>
</g>
</svg>
